<svg width="107" height="107" viewBox="0 0 107 107" fill="none" xmlns="http://www.w3.org/2000/svg">
<path fill-rule="evenodd" clip-rule="evenodd" d="M56.6626 96.7853C54.0161 97.0085 52.0436 99.3439 52.26 101.997C52.4765 104.648 54.8118 106.621 57.4719 106.397C70.7944 105.288 83.2288 99.1726 92.2525 89.2787C101.254 79.3848 106.2 66.441 106.078 53.0598C105.952 39.0046 100.235 25.5558 90.2125 15.689C80.1653 5.84469 66.6151 0.3759 52.5599 0.502138C38.5047 0.628375 25.0559 6.34513 15.189 16.3675C5.34477 26.4124 -0.126279 39.9649 0.00221322 54.0201C0.0247556 56.6801 2.20686 58.8216 4.86687 58.7968C7.52913 58.7743 9.6684 56.5944 9.64586 53.9322C9.53991 42.4333 14.0213 31.3492 22.0735 23.128C30.1482 14.9293 41.1466 10.2495 52.6478 10.1458C64.1467 10.0421 75.2308 14.5213 83.452 22.5734C91.6507 30.6481 96.3305 41.6488 96.4342 53.1477C96.5333 64.092 92.5073 74.6892 85.1291 82.7842C77.7533 90.8792 67.5754 95.8656 56.6626 96.7853ZM14.7945 74.0671C13.5344 71.7227 10.6107 70.8412 8.26626 72.0991C5.92185 73.3592 5.04044 76.283 6.30056 78.6274C11.6702 88.6092 20.11 96.6343 30.3511 101.483C32.7563 102.633 35.6373 101.612 36.7802 99.2064C37.9231 96.8011 36.8974 93.9157 34.4921 92.766C26.0906 88.7918 19.2084 82.2477 14.7945 74.0671ZM50.5897 45.6298H43.0199C42.5585 43.628 41.8943 42.2229 41.0272 41.4144C40.1615 40.6058 38.939 40.2016 37.3595 40.2016C34.9715 40.2016 33.3154 41.0484 32.3912 42.7421C31.3903 44.7063 30.8898 47.1131 30.8898 49.9625C30.8898 52.8509 31.4579 55.1329 32.594 56.8086C33.7302 58.4842 35.2991 59.3221 37.3009 59.3221C38.8804 59.3221 40.1037 58.908 40.9708 58.08C41.8364 57.2519 42.5195 55.8753 43.0199 53.9502H50.5897C50.2034 57.8005 48.6623 60.7851 45.9662 62.9041C43.6173 64.7901 40.7101 65.7331 37.2445 65.7331C32.3919 65.7331 28.7137 64.1739 26.21 61.0556C24.0144 58.3595 22.9166 54.7197 22.9166 50.136C22.9166 44.5906 24.3608 40.3932 27.2492 37.5438C29.7529 35.0401 33.1426 33.7883 37.4181 33.7883C41.4998 33.7883 44.7346 34.9627 47.1226 37.3117C49.1635 39.3916 50.3191 42.1643 50.5897 45.6298ZM68.6123 56.7229L74.9084 34.424H83.0552L70.4608 70.5865C69.5756 73.1669 68.4012 74.9485 66.9374 75.9313C65.4737 76.9127 63.2976 77.4033 60.4091 77.4033C57.7521 77.4033 55.9037 77.0569 54.8637 76.3641L56.0765 70.99C57.4636 71.3372 58.6193 71.5108 59.5435 71.5108C60.8915 71.5108 62.0465 71.0584 63.0083 70.1537C63.9716 69.249 64.4532 68.1805 64.4532 66.9482V66.3125L53.0716 34.424H61.7955L68.6123 56.7229Z" fill="url(#paint0_linear_1_4)"/>
<defs>
<linearGradient id="paint0_linear_1_4" x1="105.456" y1="51.3559" x2="0.019421" y2="48.3784" gradientUnits="userSpaceOnUse">
<stop stop-color="#11998E"/>
<stop offset="0.991304" stop-color="#38EF7D"/>
</linearGradient>
</defs>
</svg>
