<svg width="54" height="54" viewBox="0 0 54 54" fill="none" xmlns="http://www.w3.org/2000/svg">
<path fill-rule="evenodd" clip-rule="evenodd" d="M38.3534 13.5926C37.6529 13.6147 36.9987 13.8854 36.5015 14.3827L22.5431 28.341L19.5607 25.3598C33.2937 11.65 35.8009 11.5141 38.3534 13.5926ZM23.1078 28.8372L37.0208 15.0147C37.7888 14.27 39.0087 14.27 39.7767 15.0147C40.1601 15.3993 40.3634 15.9186 40.3413 16.438C40.3181 16.9805 40.0927 17.4767 39.6861 17.838L24.9818 30.803L23.1078 28.8372ZM24.1465 30.9378L20.69 31.8185C20.6226 31.8638 20.5552 31.8638 20.4867 31.8185C20.4425 31.7511 20.4425 31.6605 20.4867 31.5931L22.5873 29.4925L24.1465 30.9378ZM15.3374 29.4925L19.0193 25.8106L21.7972 28.6571L15.4954 30.0118C15.3595 30.035 15.2247 29.9444 15.2015 29.8085C15.1794 29.7179 15.2015 29.6505 15.27 29.5831L15.3374 29.4925ZM3.93048 48.6222C3.84098 48.6001 3.75037 48.5327 3.72716 48.4642C3.70506 48.3736 3.70506 48.2841 3.72716 48.2156L6.68636 45.2343L10.5262 49.0521L3.93048 48.6222ZM11.5196 44.6696C11.2268 44.8276 11.0688 45.1448 11.1362 45.4608L11.7682 48.1714C11.8136 48.3515 11.7229 48.5327 11.5881 48.6222C11.4522 48.736 11.2489 48.736 11.1362 48.6222L7.29632 44.6696L19.0867 32.8583L24.8017 31.6384L27.5344 34.371C22.6558 38.4363 17.28 41.8917 11.5428 44.6254V44.6696H11.5196ZM33.6528 28.4217C31.929 30.2295 30.0217 32.0826 28.099 33.9191L25.4791 31.2991L40.1833 18.3574C40.3181 18.2447 40.4541 18.1098 40.5668 17.9507C40.243 20.8226 37.3755 24.5166 33.6528 28.4217ZM39.5734 13.66C37.3822 11.3793 37.4728 7.76484 39.7535 5.57473C41.832 3.58683 45.0398 3.45091 47.2752 5.25759L42.2154 10.2953C42.0806 10.4533 42.0806 10.6787 42.2154 10.8367L46.1459 14.744C43.9326 15.828 41.2673 15.3761 39.5502 13.6147L39.5734 13.66ZM47.6366 13.66C47.3658 13.9086 47.0951 14.1573 46.778 14.3606L43.0066 10.5881L47.8178 5.77805C49.8952 8.01346 49.8278 11.492 47.6366 13.66ZM5.92832 39.4374C4.89515 40.0839 3.26527 39.3513 2.29177 37.802C1.40335 36.3876 0 31.5036 0 26.52C0 19.4922 2.79565 12.7407 7.76815 7.76815C12.7407 2.79565 19.4922 0 26.52 0C29.9013 0 33.2494 0.6409 33.3014 0.661895C34.9987 1.34589 36.0097 2.81886 35.5589 3.95038C35.1081 5.0819 33.5677 5.52942 32.1224 4.9504C32.1224 4.9504 29.3378 4.42 26.52 4.42C20.6635 4.42 15.039 6.75155 10.8953 10.8953C6.75155 15.039 4.42 20.6635 4.42 26.52C4.42 30.6748 5.5913 34.7412 6.03993 35.4572C7.01233 37.0076 6.9615 38.791 5.92832 39.4374ZM49.5427 18.7132C50.6985 18.3198 52.0521 19.2336 52.5649 20.7519C52.5649 20.7519 53.04 23.6249 53.04 26.52C53.04 33.5478 50.2444 40.2994 45.2719 45.2719C40.2994 50.2444 33.5478 53.04 26.52 53.04C22.7078 53.04 18.9397 52.2223 17.4888 51.5549C16.3805 51.0455 15.8921 49.7327 16.3982 48.6255C16.9043 47.5183 18.2159 47.031 19.3265 47.5371C20.1994 47.9349 23.3487 48.62 26.52 48.62C32.3765 48.62 38.0009 46.2885 42.1447 42.1447C46.2885 38.0009 48.62 32.3765 48.62 26.52C48.62 24.1111 48.2333 21.7132 48.2333 21.7132C47.8001 20.4513 48.3868 19.1066 49.5427 18.7132Z" fill="url(#paint0_linear_1_7)"/>
<defs>
<linearGradient id="paint0_linear_1_7" x1="0" y1="26.52" x2="53.04" y2="26.52" gradientUnits="userSpaceOnUse">
<stop stop-color="#FFE031"/>
<stop offset="0.986957" stop-color="#FC5252"/>
</linearGradient>
</defs>
</svg>
