<svg width="107" height="83" viewBox="0 0 107 83" fill="none" xmlns="http://www.w3.org/2000/svg">
<path d="M74.8039 65.2891C75.1036 65.3077 75.4267 65.3457 75.7498 65.3457C80.3249 65.3503 84.9046 65.3227 89.4797 65.3687C90.4818 65.3784 90.7815 65.0362 90.73 64.0762C90.6646 62.8259 90.7158 61.5709 90.7158 60.0256C95.909 63.8468 100.929 67.5368 106.08 71.3298C100.966 75.0948 95.9465 78.7895 90.7158 82.6434C90.7158 81.1871 90.7158 79.9836 90.7158 78.7801C90.7158 77.2254 90.7158 77.2208 89.2033 77.2208C59.95 77.2208 30.6921 77.2208 1.4388 77.2208C0.0246025 77.2208 0.0246018 77.2208 0.0246018 75.7972C0.0246018 72.7113 0.0667695 69.6253 0.0011767 66.544C-0.0222493 65.5419 0.30087 65.3171 1.26084 65.3218C16.9903 65.3501 32.7197 65.3731 48.4491 65.3316C56.5129 65.3086 62.8767 61.9693 67.0866 55.0201C74.682 42.4703 66.7635 26.0337 52.2094 23.9171C40.9707 22.2828 30.5235 29.8268 28.6176 41.2574C28.4162 42.4469 28.4022 43.6691 28.2851 45.102C30.1254 44.8538 31.7925 44.6244 33.6797 44.3714C30.7248 50.0844 27.873 55.6007 24.9791 61.192C20.5445 56.6216 16.1755 52.1214 11.9048 47.7196C12.9771 47.5417 14.4007 47.3356 15.8102 47.0406C16.0771 46.9841 16.4705 46.5536 16.4611 46.3054C16.3815 43.3131 16.5876 40.3536 17.1729 37.4175C17.1916 37.3285 17.1495 37.2255 17.1214 37.0522C14.2649 36.5652 11.6144 35.535 9.21216 33.8773C3.33997 29.8127 0.268072 22.25 1.71037 15.3569C3.27909 7.84579 8.94525 2.23114 16.2691 0.845049C21.0174 -0.0493645 25.4192 0.802615 29.5073 3.31287C30.2284 3.75769 30.6686 3.82329 31.1416 3.05067C31.4179 2.59647 31.8346 2.2312 32.3123 1.67863C32.907 4.0762 33.4642 6.31924 34.0168 8.5623C34.2041 9.31626 34.3493 10.0842 34.5694 10.8288C34.8082 11.6342 34.5647 11.9948 33.7124 11.9386C31.2493 11.77 28.7815 11.6202 26.3183 11.4563C25.7096 11.4138 25.1055 11.3486 24.3235 11.2736C24.9322 10.5057 25.4848 9.81728 26.0889 9.06337C24.7591 8.05159 23.2934 7.54586 21.7668 7.29766C14.3868 6.08951 7.88239 11.7603 8.03224 19.2294C8.14462 24.9611 12.9772 30.084 18.6855 30.571C19.4254 30.632 19.683 30.2573 19.9686 29.7047C24.0145 21.9407 30.1068 16.4525 38.3953 13.596C57.5713 6.9839 77.5901 18.8313 81.2848 38.2227C83.1064 47.7708 81.0319 56.4902 75.2394 64.3057C75.0802 64.5211 74.935 64.7505 74.7945 64.98C74.7662 65.0225 74.8043 65.1064 74.8272 65.2844L74.8039 65.2891Z" fill="white"/>
</svg>
