<svg width="107" height="107" viewBox="0 0 107 107" fill="none" xmlns="http://www.w3.org/2000/svg">
<path d="M53.04 106.08C42.5497 106.08 32.295 102.969 23.5726 97.141C14.8502 91.313 8.05192 83.0292 4.03745 73.3375C0.0229768 63.6457 -1.02739 52.9811 1.01918 42.6924C3.06575 32.4036 8.11733 22.9528 15.5351 15.535C25.482 5.58812 38.973 -1.04808e-07 53.04 0C67.1071 1.04808e-07 80.598 5.58812 90.545 15.535C100.492 25.482 106.08 38.9729 106.08 53.04C106.08 67.107 100.492 80.598 90.545 90.5449C85.6312 95.4855 79.7863 99.4025 73.3486 102.069C66.9108 104.736 60.0082 106.099 53.04 106.08ZM53.04 7.0721C27.6934 7.0721 7.07217 27.6933 7.07217 53.04C7.07217 78.3866 27.6934 99.0078 53.04 99.0078C78.3867 99.0078 99.0079 78.3866 99.0079 53.04C99.0079 27.6933 78.3867 7.0721 53.04 7.0721Z" fill="white"/>
<path d="M53.04 72.1845L25.7879 44.9322L30.7883 39.9318L53.04 62.1831L75.2918 39.9318L80.2921 44.9322L53.04 72.1845Z" fill="white"/>
</svg>
