<svg width="53" height="53" viewBox="0 0 53 53" fill="none" xmlns="http://www.w3.org/2000/svg">
<path d="M53 26.5C53 41.1355 41.1355 53 26.5 53C11.8645 53 0 41.1355 0 26.5C0 11.8645 11.8645 0 26.5 0C41.1355 0 53 11.8645 53 26.5Z" fill="#77B3D4"/>
<path d="M25.1126 43.2938C14.8963 28.8947 13 27.4169 13 22.125C13 14.8762 19.0441 9 26.5 9C33.9559 9 40 14.8762 40 22.125C40 27.4169 38.1037 28.8947 27.8874 43.2938C27.217 44.2354 25.783 44.2354 25.1126 43.2938ZM26.5 27.5937C29.6066 27.5937 32.125 25.1453 32.125 22.125C32.125 19.1047 29.6066 16.6562 26.5 16.6562C23.3934 16.6562 20.875 19.1047 20.875 22.125C20.875 25.1453 23.3934 27.5937 26.5 27.5937Z" fill="#E0E0D1"/>
</svg>
