<svg width="54" height="54" viewBox="0 0 54 54" fill="none" xmlns="http://www.w3.org/2000/svg">
<path d="M26.52 53.04C41.1666 53.04 53.04 41.1666 53.04 26.52C53.04 11.8734 41.1666 0 26.52 0C11.8734 0 0 11.8734 0 26.52C0 41.1666 11.8734 53.04 26.52 53.04Z" fill="#77B3D4"/>
<path opacity="0.2" d="M43.095 36.465C43.095 38.2882 41.6033 39.78 39.78 39.78H13.26C11.4367 39.78 9.945 38.2882 9.945 36.465V19.89C9.945 18.0667 11.4367 16.575 13.26 16.575H39.78C41.6033 16.575 43.095 18.0667 43.095 19.89V36.465Z" fill="#231F20"/>
<path d="M43.095 34.8075C43.095 36.6307 41.6033 38.1225 39.78 38.1225H13.26C11.4367 38.1225 9.945 36.6307 9.945 34.8075V18.2325C9.945 16.4092 11.4367 14.9175 13.26 14.9175H39.78C41.6033 14.9175 43.095 16.4092 43.095 18.2325V34.8075Z" fill="#E0E0D1"/>
<path opacity="0.2" d="M29.4206 25.0282C27.846 23.2879 25.194 23.2879 23.6194 25.0282L10.7737 35.802C10.608 35.9677 10.5251 36.1335 10.3594 36.2992C10.9395 37.3766 12.0169 38.1225 13.1771 38.1225H39.6971C40.9403 38.1225 41.9347 37.3766 42.5149 36.2992C42.432 36.1335 42.2662 35.9677 42.1005 35.802L29.4206 25.0282Z" fill="#231F20"/>
<path d="M29.4206 26.52C27.846 24.9454 25.194 24.9454 23.6194 26.52L10.7737 36.0506C10.608 36.2164 10.5251 36.2993 10.3594 36.465C10.9395 37.4595 12.0169 38.0396 13.1771 38.0396H39.6971C40.9403 38.0396 41.9347 37.3766 42.5149 36.465C42.432 36.2993 42.2662 36.2164 42.1005 36.0506L29.4206 26.52Z" fill="#E0E0D1"/>
<path opacity="0.2" d="M10.4423 16.7407C11.0224 15.6634 12.0998 14.9175 13.26 14.9175H39.78C41.0231 14.9175 42.0176 15.6634 42.5978 16.7407C42.5149 16.9065 42.3491 17.0722 42.1834 17.238L29.4206 28.0117C27.846 29.7521 25.194 29.7521 23.6194 28.0117L10.4423 16.7407Z" fill="#231F20"/>
<path d="M23.6194 26.52C25.194 28.0946 27.846 28.0946 29.4206 26.52L42.2663 16.9894C42.432 16.8236 42.5149 16.7408 42.6806 16.575C42.1005 15.5805 41.0231 15.0004 39.8629 15.0004H13.26C12.0169 15.0004 11.0224 15.6634 10.4423 16.575C10.5251 16.7408 10.6909 16.8236 10.8566 16.9894L23.6194 26.52Z" fill="white"/>
</svg>
