<svg width="53" height="53" viewBox="0 0 53 53" fill="none" xmlns="http://www.w3.org/2000/svg">
<path d="M53 26.5C53 41.1355 41.1355 53 26.5 53C11.8645 53 0 41.1355 0 26.5C0 11.8645 11.8645 0 26.5 0C41.1355 0 53 11.8645 53 26.5Z" fill="#77B3D4"/>
<path d="M26.5 24.25C27.7196 24.25 28.9119 23.8395 29.926 23.0703C30.9401 22.3011 31.7305 21.2079 32.1973 19.9288C32.664 18.6497 32.7861 17.2422 32.5482 15.8844C32.3102 14.5265 31.7229 13.2792 30.8605 12.3003C29.9981 11.3213 28.8993 10.6546 27.7031 10.3845C26.5068 10.1144 25.2669 10.253 24.1401 10.7828C23.0133 11.3127 22.0502 12.2099 21.3726 13.361C20.695 14.5122 20.3333 15.8655 20.3333 17.25C20.3333 19.1065 20.983 20.887 22.1395 22.1998C23.296 23.5125 24.8645 24.25 26.5 24.25Z" fill="#F9F9E0"/>
<path d="M35.75 41.75C36.1589 41.75 36.551 41.5656 36.8401 41.2375C37.1292 40.9093 37.2917 40.4641 37.2917 40C37.2917 36.7511 36.1547 33.6353 34.1309 31.338C32.107 29.0406 29.3621 27.75 26.5 27.75C23.6379 27.75 20.893 29.0406 18.8691 31.338C16.8453 33.6353 15.7083 36.7511 15.7083 40C15.7083 40.4641 15.8708 40.9093 16.1599 41.2375C16.449 41.5656 16.8411 41.75 17.25 41.75H35.75Z" fill="#F9F9E0"/>
</svg>
