<svg width="54" height="54" viewBox="0 0 54 54" fill="none" xmlns="http://www.w3.org/2000/svg">
<path d="M26.52 53.04C41.1666 53.04 53.04 41.1666 53.04 26.52C53.04 11.8734 41.1666 0 26.52 0C11.8734 0 0 11.8734 0 26.52C0 41.1666 11.8734 53.04 26.52 53.04Z" fill="#77B3D4"/>
<path opacity="0.2" d="M24.0338 20.9674C23.7023 16.9894 19.5585 15.0832 19.3928 15.0004C19.1441 14.9175 18.9784 14.9175 18.8126 14.9175C14.0059 15.7462 13.3429 18.4811 13.26 18.6469V19.1441C18.9784 36.8794 30.8295 40.1115 34.7246 41.1889C35.0561 41.2717 35.3048 41.3546 35.4705 41.4375C35.5534 41.4375 35.6363 41.5204 35.7191 41.5204C35.8849 41.5204 35.9678 41.5204 36.1335 41.4375C36.2164 41.3546 39.0341 40.0286 39.78 35.7191C39.78 35.5534 39.78 35.3047 39.6971 35.139C39.6143 35.0561 38.1225 32.2384 34.0616 31.2439C33.813 31.161 33.4815 31.2439 33.2329 31.4096C31.9069 32.487 30.1665 33.6472 29.4206 33.813C24.2824 31.3267 21.3818 26.4371 21.2989 25.5255C21.216 25.0282 22.3763 23.205 23.7851 21.7132C23.9509 21.5475 24.0338 21.216 24.0338 20.9674Z" fill="#231F20"/>
<path d="M24.0338 19.3099C23.7023 15.3319 19.5585 13.4258 19.3928 13.3429C19.1441 13.26 18.9784 13.26 18.8126 13.26C14.0059 14.0888 13.3429 16.8236 13.26 16.9894V17.4866C18.9784 35.2219 30.8295 38.454 34.7246 39.5314C35.0561 39.6143 35.3048 39.6971 35.4705 39.78C35.5534 39.78 35.6363 39.8629 35.7191 39.8629C35.8849 39.8629 35.9678 39.8629 36.1335 39.78C36.2164 39.6971 39.0341 38.3711 39.78 34.0616C39.78 33.8959 39.78 33.6473 39.6971 33.4815C39.6143 33.3986 38.1225 30.5809 34.0616 29.5864C33.813 29.5035 33.4815 29.5864 33.2329 29.7521C31.9069 30.8295 30.1665 31.9897 29.4206 32.1555C24.2824 29.6693 21.3818 24.7796 21.2989 23.868C21.216 23.3708 22.3763 21.5475 23.7851 20.0558C23.9509 19.89 24.0338 19.5585 24.0338 19.3099Z" fill="white"/>
</svg>
